<svg xmlns="http://www.w3.org/2000/svg" version="1.1" xmlns:xlink="http://www.w3.org/1999/xlink" xmlns:svgjs="http://svgjs.dev/svgjs" width="2000" height="1247" viewBox="0 0 2000 1247"><g transform="matrix(1,0,0,1,-1.2121212121212466,0.504858299595071)"><svg viewBox="0 0 396 247" data-background-color="#ffffff" preserveAspectRatio="xMidYMid meet" height="1247" width="2000" xmlns="http://www.w3.org/2000/svg" xmlns:xlink="http://www.w3.org/1999/xlink"><defs></defs><g id="tight-bounds" transform="matrix(1,0,0,1,0.2400000000000091,-0.09999999999999432)"><svg viewBox="0 0 395.52 247.2" height="247.2" width="395.52"><g><svg></svg></g><g><svg viewBox="0 0 395.52 247.2" height="247.2" width="395.52"><g transform="matrix(1,0,0,1,75.54432000000001,70.14020005006259)"><svg viewBox="0 0 244.43135999999996 106.91959989987483" height="106.91959989987483" width="244.43135999999996"><g><svg viewBox="0 0 244.43135999999996 106.91959989987483" height="106.91959989987483" width="244.43135999999996"><g><svg viewBox="0 0 244.43135999999996 106.91959989987483" height="106.91959989987483" width="244.43135999999996"><g><svg viewBox="0 0 244.43135999999996 106.91959989987483" height="106.91959989987483" width="244.43135999999996"><g><svg viewBox="0 0 244.43135999999996 106.91959989987483" height="106.91959989987483" width="244.43135999999996"><g><svg viewBox="0 0 244.43135999999996 106.91959989987483" height="106.91959989987483" width="244.43135999999996"><g transform="matrix(1,0,0,1,0,0)"><svg width="244.43135999999996" viewBox="-5.1 -34.95 79.89999999999999 34.95" height="106.91959989987483" data-palette-color="#000000"><path d="M36.55-2.15L42.35-2.15 42.35 0 29.2 0 25.95-7.55 11.3-7.55 8.05 0-5.1 0-5.1-2.15 0.65-2.15 14.85-34.95 22.4-34.95 36.55-2.15ZM23-14.4L18.65-24.55 14.25-14.4 23-14.4ZM72.2-34.95L58.3-19.5 70.65-2.15 74.8-2.15 74.8 0 63.1 0 52.85-13.8 49.35-9.9 49.35 0 37.25 0 37.25-2.15 41.55-2.15 41.55-34.95 49.35-34.95 49.35-20.6 62.55-34.95 72.2-34.95Z" opacity="1" transform="matrix(1,0,0,1,0,0)" fill="#000000" class="undefined-text-0" data-fill-palette-color="primary" id="text-0"></path></svg></g></svg></g></svg></g></svg></g></svg></g></svg></g></svg></g><g><path d="M151.089 202.301A122.216 122.216 0 1 0 151.089 44.899L160.731 44.899A112.574 112.574 0 1 1 160.731 202.301L151.089 202.301" fill="#000000" stroke="transparent" data-fill-palette-color="tertiary"></path></g></svg></g></svg><rect width="395.52" height="247.2" fill="none" stroke="none" visibility="hidden"></rect></g></svg></g></svg>